<?xml version="1.0" encoding="utf-8"?>
<!-- Generator: Adobe Illustrator 27.6.1, SVG Export Plug-In . SVG Version: 6.00 Build 0)  -->
<svg version="1.1" id="Layer_1" xmlns="http://www.w3.org/2000/svg" xmlns:xlink="http://www.w3.org/1999/xlink" x="0px" y="0px"
	 viewBox="0 0 500 500" style="enable-background:new 0 0 500 500;" xml:space="preserve">
<style type="text/css">
	.st0{fill:url(#SVGID_1_);}
</style>
<g>
	<linearGradient id="SVGID_1_" gradientUnits="userSpaceOnUse" x1="79.3501" y1="117.5604" x2="362.2931" y2="400.5034">
		<stop  offset="0" style="stop-color:#31ECFF"/>
		<stop  offset="0.0555" style="stop-color:#34E4FF"/>
		<stop  offset="0.1406" style="stop-color:#3DCFFF"/>
		<stop  offset="0.2447" style="stop-color:#4CACFF"/>
		<stop  offset="0.3639" style="stop-color:#607BFF"/>
		<stop  offset="0.494" style="stop-color:#7A3EFF"/>
		<stop  offset="0.5535" style="stop-color:#871FFF"/>
		<stop  offset="0.6975" style="stop-color:#B21BFF"/>
		<stop  offset="0.9013" style="stop-color:#E916FF"/>
		<stop  offset="1" style="stop-color:#FF14FF"/>
	</linearGradient>
	<path class="st0" d="M314.95,151.33c-12.23,4.03-24.79,6.89-37.6,8.53c-8.71,1.11-17.53,1.68-26.47,1.68
		c-29.55,0-58.08-6.15-84.82-18.31c-0.76-0.33-1.49-0.66-2.22-1.02c-5.63-2.55-11.69-3.83-18-3.83c-17.77,0-33.76,10.55-40.74,26.88
		l-0.02,0.05c-0.52,1.35-1.02,2.67-1.47,4.02l-0.12,0.31c-5.96,16.75-8.99,34.38-8.99,52.36c0,33.5,10.6,64.54,28.6,90.02
		c-44.03-17.29-75.19-60.19-75.19-110.34c0-5.47,0.38-10.84,1.09-16.09c1.4-7.78,3.24-15.5,5.54-23.07
		c0.92-3.05,1.92-6.08,2.98-9.08c0.73-2.11,1.54-4.28,2.48-6.67l1.85-4.71l0.54-0.54c10.91-22.1,29.88-38.61,52.47-46.56
		c9.77-3.45,20.23-5.3,30.97-5.3c10.76,0,21.22,1.82,31.16,5.39c4.48,1.89,9.56,4.44,13.47,7.42c6.34,4.03,12.48,8.4,18.77,12.64
		c12.52,8.5,25.46,16.93,39.63,23.58c14.26,6.63,29.44,11.08,45.12,12.81C300.95,152.18,308,152.14,314.95,151.33z M456,221.98
		c0-23.78-4.02-47.03-11.97-69.15c-0.24-0.73-0.47-1.37-0.69-1.92c-0.4-1.04-0.78-2.11-1.21-3.15l-0.52-1.3
		c-14.6-34.52-48.24-56.83-85.71-56.83c-12.54,0-24.72,2.46-36.22,7.31l-0.5,0.21l-1.85,0.85c-0.52,0.26-1.06,0.5-1.7,0.8
		c-20.39,9.27-42.18,13.98-64.75,13.98c-2.06,0-4.12-0.05-6.15-0.12c-9.03-0.35-17.9-1.5-26.61-3.35
		c12.05,6.42,23.77,13.02,35.75,18.62c13.27,6.16,27.27,11.08,41.56,14.33c7.16,1.52,14.43,2.72,21.79,2.95
		c6.61,0.27,12.21,0.29,20.15-2.79c0.27-0.13,0.55-0.25,0.83-0.38l0.66-0.31c5.39-2.25,11.12-3.38,17.03-3.38
		c17.58,0,33.38,10.29,40.5,26.31l0.31,0.76c0.38,0.9,0.71,1.82,1.04,2.74l0.21,0.59c6.17,16.99,9.3,34.9,9.3,53.21
		c0,37.24-13.06,71.45-34.87,98.32c-20.27-8.42-41.54-14.45-63.14-17.98c-35.32-5.84-71.4-4.78-106.06,2.08
		c-4.35,0.76-8.61,1.96-12.92,2.96c-2.13,0.54-4.28,1.02-6.41,1.61l-6.32,1.92c-8.47,2.39-16.73,5.51-24.89,8.66
		c-5.84,2.37-11.62,4.97-17.25,7.76c-10.03,4.94-19.68,10.53-28.96,16.61l-5.39,3.62c-1.8,1.18-3.57,2.41-5.28,3.76l-2.44,1.89
		l-7.81,5.99l-9.75,8.45c-3.22,2.82-6.18,5.99-9.25,8.92c-12.02,12.14-22.76,25.36-31.58,39.67c13.56-9.96,27.18-19.16,41.17-27.4
		c6.96-4.14,14.17-7.78,21.22-11.5l10.84-5.11c0.71-0.36,1.42-0.69,2.13-0.99c2.91-1.32,5.89-2.46,8.8-3.74
		c14.64-6.03,29.5-11.1,44.55-15c0.28-0.07,0.57-0.12,0.85-0.19c7.31-1.68,14.53-3.5,21.91-4.68l5.7-1.02
		c1.89-0.31,3.83-0.5,5.75-0.76c3.83-0.43,7.59-1.14,11.45-1.4c30.61-2.89,61.51-1.28,91.11,5.23c9.75,2.01,19.35,4.59,28.77,7.64
		c0,0,0,0,0,0c18.22,5.84,35.82,13.44,52.76,22.36c0,0,0,0,0,0c0,0,0,0,0,0c2.84-2.37,5.58-4.78,8.28-7.31
		c9.51-8.82,18.22-18.55,25.88-29.03l0,0C441.19,309.33,456,267.36,456,221.98z"/>
</g>
</svg>
